<?xml version="1.0" standalone="no"?>
<!DOCTYPE svg PUBLIC "-//W3C//DTD SVG 20010904//EN"
 "http://www.w3.org/TR/2001/REC-SVG-20010904/DTD/svg10.dtd">
<svg version="1.0" xmlns="http://www.w3.org/2000/svg"
 width="278.000000pt" height="278.000000pt" viewBox="0 0 278.000000 278.000000"
 preserveAspectRatio="xMidYMid meet">
<metadata>
Created by potrace 1.11, written by Peter Selinger 2001-2013
</metadata>
<g transform="translate(0.000000,278.000000) scale(0.100000,-0.100000)"
fill="#000000" stroke="none">
<path d="M1215 2760 c-100 -15 -121 -20 -209 -45 -499 -145 -863 -532 -976
-1040 -31 -139 -35 -368 -10 -515 96 -547 502 -979 1045 -1111 119 -29 174
-34 345 -33 174 0 263 15 427 69 435 145 770 497 893 938 33 121 41 181 46
337 10 387 -135 744 -412 1013 -213 207 -468 334 -766 381 -89 14 -303 18
-383 6z m363 -487 l3 -83 -191 0 -190 0 0 83 0 83 188 -1 187 0 3 -82z m2
-220 l0 -83 -190 0 -190 0 0 83 0 82 190 0 190 0 0 -82z m523 -261 c123 -55
190 -157 228 -347 14 -71 41 -128 70 -149 20 -13 20 -17 8 -32 -20 -24 -108
-64 -142 -64 -15 0 -36 6 -47 12 -17 11 -22 10 -35 -8 -18 -27 -99 -78 -146
-93 -120 -38 -253 -1 -347 96 -31 32 -35 33 -51 19 -30 -27 -74 -30 -125 -8
l-46 21 31 31 c31 30 31 33 24 93 -21 173 -13 198 111 322 75 76 86 83 155
103 93 27 108 29 194 27 47 -1 86 -9 118 -23z m-1169 -51 c54 -14 119 -55 156
-98 121 -138 107 -349 -32 -467 -165 -142 -424 -85 -517 113 -22 47 -26 70
-26 143 0 55 5 92 13 100 6 6 12 18 12 26 0 26 63 102 114 137 83 56 184 73
280 46z m-397 -623 c44 -56 120 -106 195 -129 142 -43 282 -5 395 108 64 64
53 60 161 54 7 -1 33 -21 58 -46 l45 -45 45 45 c46 45 53 48 131 48 35 0 47
-5 65 -29 41 -52 82 -84 148 -117 59 -29 73 -32 160 -31 85 0 102 3 161 31 43
20 85 50 118 84 28 29 51 56 51 59 0 4 22 6 48 5 83 -2 170 -75 220 -183 l25
-56 -39 -74 c-53 -100 -175 -260 -273 -356 l-80 -80 -353 1 c-297 0 -359 3
-390 16 -35 15 -41 15 -75 0 -32 -13 -94 -16 -388 -17 l-350 -1 -91 90 c-101
100 -179 201 -253 324 -50 82 -50 82 -37 125 35 114 147 215 236 211 33 -1 45
-8 67 -37z"/>
</g>
</svg>
